<svg xmlns="http://www.w3.org/2000/svg" width="200" height="228.571" viewBox="0 0 200 228.571"><path d="M144.446,22.857a266.687,266.687,0,0,0-25.1,26.772A346.373,346.373,0,0,0,75,0C31.134,40.7,0,93.732,0,125.714c0,56.808,44.772,102.857,100,102.857s100-46.049,100-102.857c0-23.781-23.205-72.83-55.554-102.857Zm-8.692,152.076a60,60,0,0,1-34.478,10.781c-32.21,0-58.42-21.312-58.42-55.915,0-17.237,10.853-32.424,32.5-58.371,3.094,3.563,44.121,55.955,44.121,55.955l26.174-29.857c1.848,3.058,3.531,6.049,5.031,8.915C162.888,129.741,157.737,159.554,135.754,174.933Z" fill="#ef5454"/></svg>